<svg id="레이어_1" data-name="레이어 1" xmlns="http://www.w3.org/2000/svg" viewBox="0 0 1920 1080"><title>Background</title><rect width="1920" height="759" style="fill:#a9dbed"/><rect y="759" width="1920" height="321" style="fill:#4285f4"/><path d="M1884.5,680H0V841.5A35.6,35.6,0,0,0,35.5,877h.11a35.6,35.6,0,0,0,35.5-35.5v-27a35.56,35.56,0,0,1,71.11,0v-1a35.6,35.6,0,0,0,35.5,35.5h.11a35.6,35.6,0,0,0,35.5-35.5v1a35.56,35.56,0,0,1,71.11,0v70a35.6,35.6,0,0,0,35.5,35.5h.12a35.6,35.6,0,0,0,35.5-35.5v-70a35.56,35.56,0,0,1,71.11,0v-1a35.6,35.6,0,0,0,35.5,35.5h.11a35.6,35.6,0,0,0,35.5-35.5v1a35.56,35.56,0,0,1,71.11,0v70a35.6,35.6,0,0,0,35.5,35.5h.11A35.6,35.6,0,0,0,640,884.5v-70a35.56,35.56,0,0,1,71.11,0v27a35.6,35.6,0,0,0,35.5,35.5h.11a35.6,35.6,0,0,0,35.5-35.5v-27a35.56,35.56,0,0,1,71.11,0v70a35.6,35.6,0,0,0,35.5,35.5h.11a35.6,35.6,0,0,0,35.5-35.5v-70a35.56,35.56,0,0,1,71.12,0v-1a35.6,35.6,0,0,0,35.5,35.5h.11a35.6,35.6,0,0,0,35.5-35.5v1a35.56,35.56,0,0,1,71.11,0v70a35.6,35.6,0,0,0,35.5,35.5h.11a35.6,35.6,0,0,0,35.5-35.5v-70a35.56,35.56,0,0,1,71.11,0v27a35.6,35.6,0,0,0,35.5,35.5h.11a35.6,35.6,0,0,0,35.5-35.5v-27a35.56,35.56,0,0,1,71.11,0v70a35.6,35.6,0,0,0,35.5,35.5h.11a35.6,35.6,0,0,0,35.5-35.5v-70a35.56,35.56,0,0,1,71.11,0v-1a35.6,35.6,0,0,0,35.5,35.5h.12a35.6,35.6,0,0,0,35.5-35.5v1a35.56,35.56,0,0,1,71.11,0v70a35.6,35.6,0,0,0,35.5,35.5h.11a35.6,35.6,0,0,0,35.5-35.5v-70a35.56,35.56,0,0,1,71.11,0v-1a35.6,35.6,0,0,0,35.5,35.5h.11a35.6,35.6,0,0,0,35.5-35.5V680Z" style="fill:#ededed"/><rect x="73" y="469.33" width="203.5" height="50.67" rx="25.33" ry="25.33" style="fill:#ededed;opacity:0.5"/><path d="M240.37,469.33H156.48a25.33,25.33,0,1,0,0-50.66h83.89a25.33,25.33,0,1,0,0,50.66Z" style="fill:#ededed;opacity:0.5"/><rect x="131.97" y="368" width="203.5" height="50.67" rx="25.33" ry="25.33" style="fill:#ededed;opacity:0.5"/><rect x="1563" y="266.33" width="203.5" height="50.67" rx="25.33" ry="25.33" style="fill:#ededed;opacity:0.5"/><path d="M1671.37,266.33h-83.89a25.33,25.33,0,0,0,0-50.66h83.89a25.33,25.33,0,1,0,0,50.66Z" style="fill:#ededed;opacity:0.5"/><rect x="1480" y="165" width="286.47" height="50.67" rx="25.33" ry="25.33" style="fill:#ededed;opacity:0.5"/><rect x="1016.5" y="374.67" width="101.75" height="25.33" rx="12.67" ry="12.67" style="fill:#ededed;opacity:0.5"/><path d="M1070.68,374.67h-41.94a12.67,12.67,0,0,0,0-25.34h41.94a12.67,12.67,0,0,0,0,25.34Z" style="fill:#ededed;opacity:0.5"/><rect x="975" y="324" width="143.23" height="25.33" rx="12.67" ry="12.67" style="fill:#ededed;opacity:0.5"/><rect x="542" y="232.33" width="135.22" height="33.67" rx="16.83" ry="16.83" style="fill:#ededed;opacity:0.5"/><path d="M653.21,232.33H597.47a16.83,16.83,0,0,0,0-33.66h55.74a16.83,16.83,0,0,0,0,33.66Z" style="fill:#ededed;opacity:0.5"/><rect x="581.19" y="165" width="135.22" height="33.67" rx="16.83" ry="16.83" style="fill:#ededed;opacity:0.5"/><rect x="1359" y="418.33" width="159.32" height="50.67" rx="25.33" ry="25.33" style="fill:#ededed;opacity:0.5"/><rect x="546" y="462.33" width="159.32" height="50.67" rx="25.33" ry="25.33" style="fill:#ededed;opacity:0.5"/><rect x="1083" y="181.33" width="159.32" height="50.67" rx="25.33" ry="25.33" style="fill:#ededed;opacity:0.5"/></svg>